# xmcd CD database file
#
# Track frame offsets:
#	150
#	14672
#	29272
#	43583
#	56745
#	71724
#	84991
#	97892
#	111945
#	124996
#	137175
#	151499
#	161716
#	174127
#	184863
#	198044
#
# Disc length: 2813 seconds
#
# Revision: 0
# Processed by: cddbd v1.4PL0 Copyright (c) Steve Scherf et al.
# Submitted via: CDex 1.50beta10
#
DISCID=d70afb10
DTITLE=John Coltrane - Complete recordings With Dizzy Gillespie
DYEAR=1900
DGENRE=Jazz
TTITLE0=Say When
TTITLE1=Tally-Ho
TTITLE2=You Stole My Wife, You Horsethief
TTITLE3=I Can't Remember
TTITLE4=Coast To Coast
TTITLE5=Carambola
TTITLE6=Oo-La-La
TTITLE7=Honeysuckle Rose
TTITLE8=Birk's Works
TTITLE9=Tin Tin Deo
TTITLE10=We Love To Boogie
TTITLE11=Fast Movin' Mama
TTITLE12=Juice Head Man Of Mine
TTITLE13=Shuckin' And Jivin'
TTITLE14=Richest Guy In The Graveyard
TTITLE15=Richest Guy In The Graveyard
EXTD=
EXTT0=
EXTT1=
EXTT2=
EXTT3=
EXTT4=
EXTT5=
EXTT6=
EXTT7=
EXTT8=
EXTT9=
EXTT10=
EXTT11=
EXTT12=
EXTT13=
EXTT14=
EXTT15=
PLAYORDER=
